<svg xmlns="http://www.w3.org/2000/svg" version="1.1" xmlns:xlink="http://www.w3.org/1999/xlink" xmlns:svgjs="http://svgjs.dev/svgjs" width="2000" height="343" viewBox="0 0 2000 343"><g transform="matrix(1,0,0,1,-1.2121212121212466,-1.9965639790279113)"><svg viewBox="0 0 396 68" data-background-color="#ffffff" preserveAspectRatio="xMidYMid meet" height="343" width="2000" xmlns="http://www.w3.org/2000/svg" xmlns:xlink="http://www.w3.org/1999/xlink"><g id="tight-bounds" transform="matrix(1,0,0,1,0.2400000000000091,0.3958202640638433)"><svg viewBox="0 0 395.52 67.20835947187231" height="67.20835947187231" width="395.52"><g><svg viewBox="0 0 640.4251255995584 108.82362979397782" height="67.20835947187231" width="395.52"><g transform="matrix(1,0,0,1,244.9051255995585,15.040024088748027)"><svg viewBox="0 0 395.52 78.74358161648176" height="78.74358161648176" width="395.52"><g id="textblocktransform"><svg viewBox="0 0 395.52 78.74358161648176" height="78.74358161648176" width="395.52" id="textblock"><g><svg viewBox="0 0 395.52 78.74358161648176" height="78.74358161648176" width="395.52"><g transform="matrix(1,0,0,1,0,0)"><svg width="395.52" viewBox="1 -37.25 252.38 50.25" height="78.74358161648176" data-palette-color="#8789fe"><path d="M20.8-18.55L20.8-18.55 20.8-14.35Q19.65-14.55 18.85-14.68 18.05-14.8 17.13-14.88 16.2-14.95 14.65-14.95L14.65-14.95Q13.45-14.95 12.08-14.9 10.7-14.85 9.05-14.6L9.05-14.6 9.05-18.3Q10.8-18.15 12.08-18.07 13.35-18 14.55-18L14.55-18Q16.1-18 17.05-18.07 18-18.15 18.82-18.28 19.65-18.4 20.8-18.55ZM19.5-22.7L22.25-22.7Q22.2-21.2 22.13-19.73 22.05-18.25 22.05-16.65L22.05-16.65Q22.05-15 22.13-13.13 22.2-11.25 22.25-10.2L22.25-10.2 19.5-10.2 17.85-15.4 17.85-17.55 19.5-22.7ZM28.35 0L28.35 0Q23.95-0.15 9.4-0.15L9.4-0.15Q7.65-0.15 6-0.13 4.35-0.1 1.6 0L1.6 0 1-1.9 5.4-2.95Q5.5-7 5.58-10.93 5.65-14.85 5.65-18.8L5.65-18.8Q5.65-21.95 5.58-24.6 5.5-27.25 5.4-29.85L5.4-29.85 1-31.05 1.65-33Q4.15-32.9 6.15-32.85 8.15-32.8 9.6-32.8L9.6-32.8Q11.05-32.8 13.1-32.8 15.15-32.8 17.4-32.83 19.65-32.85 21.75-32.88 23.85-32.9 25.48-32.93 27.1-32.95 27.85-33L27.85-33Q27.7-29.85 27.6-27.43 27.5-25 27.45-23.1L27.45-23.1 24.25-23.1 23.35-28.35Q22.1-29 20.35-29.3 18.6-29.6 16.65-29.6L16.65-29.6Q15.75-29.6 14.83-29.53 13.9-29.45 12.95-29.35L12.95-29.35Q12.9-24.85 12.88-20.85 12.85-16.85 12.85-13.15L12.85-13.15Q12.85-10.85 12.88-8.45 12.9-6.05 12.95-3.45L12.95-3.45Q13.8-3.35 14.7-3.28 15.6-3.2 16.5-3.2L16.5-3.2Q18.5-3.2 20.4-3.5 22.3-3.8 23.55-4.45L23.55-4.45 24.7-10.5 27.9-10.5Q27.9-8.2 28.03-5.38 28.15-2.55 28.35 0ZM43.8-21.8L43.8-21.8Q46.45-21.8 48.4-20.18 50.35-18.55 50.35-15.25L50.35-15.25Q50.35-13.1 50.27-11.65 50.2-10.2 50.12-9.08 50.05-7.95 50.05-6.75L50.05-6.75Q50.05-5.35 50.22-4.78 50.4-4.2 51.2-4.2L51.2-4.2Q51.9-4.2 53.3-4.85L53.3-4.85 54.2-2.65Q52.4-1.4 50.75-0.58 49.1 0.25 47.25 0.25L47.25 0.25Q45.7 0.25 44.55-0.98 43.4-2.2 43.4-4.85L43.4-4.85Q43.4-7.3 43.62-9.68 43.85-12.05 43.85-13.9L43.85-13.9Q43.85-15.45 43.4-16.4 42.95-17.35 41.9-17.7L41.9-17.7Q39.6-17.6 37.5-16.85 35.4-16.1 33.2-14.95L33.2-14.95 31.9-17.1Q34.75-19.2 37.67-20.5 40.6-21.8 43.8-21.8ZM47.35-13.95L47.35-13.95 44.35-9.8Q43.25-9.55 42.4-9.3 41.55-9.05 40.85-8.9L40.85-8.9Q39.15-8.55 38.5-8.03 37.85-7.5 37.85-6.2L37.85-6.2Q37.85-5.15 38.4-4.55 38.95-3.95 39.9-3.95L39.9-3.95Q41.05-3.95 42.82-5.03 44.6-6.1 45.85-7.75L45.85-7.75 46.8-5.7Q46-4.7 44.52-3.25 43.05-1.8 41-0.68 38.95 0.45 36.5 0.45L36.5 0.45Q35.25 0.45 34.07-0.23 32.9-0.9 32.12-2.25 31.35-3.6 31.35-5.6L31.35-5.6Q31.35-7.7 32.62-8.88 33.9-10.05 36.1-10.7 38.3-11.35 40.95-11.8L40.95-11.8Q42.75-12.1 44.3-12.58 45.85-13.05 47.35-13.95ZM56.09-1.3L56.09-1.3Q56.5-3.2 56.77-4.48 57.05-5.75 57.25-7.25L57.25-7.25 59.75-7.25 60.55-3.35Q61.2-2.8 62.09-2.5 63-2.2 63.9-2.2L63.9-2.2Q65.15-2.2 66.12-2.8 67.09-3.4 67.09-4.65L67.09-4.65Q67.09-5.7 66.32-6.38 65.55-7.05 64.34-7.58 63.15-8.1 61.8-8.63 60.45-9.15 59.25-9.95 58.05-10.75 57.27-11.95 56.5-13.15 56.5-15L56.5-15Q56.5-17.55 57.75-19.03 59-20.5 61.02-21.15 63.05-21.8 65.3-21.8L65.3-21.8Q67.05-21.8 68.95-21.4 70.84-21 72.4-20.25L72.4-20.25Q72-18.5 71.67-17.15 71.34-15.8 71.09-14.5L71.09-14.5 68.5-14.55 67.84-17.95Q66.95-19.15 64.9-19.15L64.9-19.15Q63.8-19.15 62.87-18.65 61.95-18.15 61.95-17L61.95-17Q61.95-15.9 62.75-15.23 63.55-14.55 64.82-14.05 66.09-13.55 67.55-12.98 69-12.4 70.27-11.55 71.55-10.7 72.34-9.38 73.15-8.05 73.15-6L73.15-6Q73.15-3.6 71.84-2.18 70.55-0.75 68.4-0.13 66.25 0.5 63.75 0.5L63.75 0.5Q61.84 0.5 59.9 0.1 57.95-0.3 56.09-1.3ZM102.69-21.05L102.69-21.05 103.44-19.15 99.59-18.2Q96.24-10.95 93.07-4.03 89.89 2.9 87.89 9.5L87.89 9.5 92.49 11.05 91.69 13Q90.49 12.9 88.74 12.85 86.99 12.8 85.19 12.8L85.19 12.8Q83.99 12.8 82.47 12.83 80.94 12.85 79.59 12.9 78.24 12.95 77.44 13L77.44 13 76.64 11 82.49 9.4Q83.89 7.4 85.62 4.2 87.34 1 89.14-2.83 90.94-6.65 92.52-10.63 94.09-14.6 95.19-18.2L95.19-18.2 91.29-19.15 91.99-21.05Q93.54-21 94.77-20.98 95.99-20.95 97.29-20.95L97.29-20.95Q98.64-20.95 99.99-20.98 101.34-21 102.69-21.05ZM88.34-21L88.34-21 89.24-19.1 85.64-18.1Q86.24-16.25 86.74-14.85 87.24-13.45 87.77-12.18 88.29-10.9 89.02-9.35 89.74-7.8 90.79-5.65L90.79-5.65Q90.89-5.15 90.54-3.98 90.19-2.8 89.62-1.53 89.04-0.25 88.42 0.65 87.79 1.55 87.39 1.55L87.39 1.55Q85.99-1.55 84.84-4 83.69-6.45 82.64-8.68 81.59-10.9 80.44-13.15 79.29-15.4 77.94-18.1L77.94-18.1 74.14-19.1 74.84-21Q76.34-20.95 77.87-20.9 79.39-20.85 81.34-20.85L81.34-20.85Q83.44-20.85 85.24-20.9 87.04-20.95 88.34-21ZM126.29-30L133.79-30Q133.74-25.05 133.74-21.23 133.74-17.4 133.74-13.95L133.74-13.95Q133.74-11.4 133.74-8.85 133.74-6.3 133.79-3.2L133.79-3.2 139.09-1.9 138.44 0Q137.14-0.1 134.81-0.13 132.49-0.15 130.09-0.15L130.09-0.15Q127.79-0.15 125.46-0.1 123.14-0.05 121.59 0L121.59 0 120.89-1.9 126.29-3.2Q126.39-6.9 126.46-9.98 126.54-13.05 126.54-16.2L126.54-16.2Q126.54-19.15 126.46-22.53 126.39-25.9 126.29-30L126.29-30ZM145.19-33L145.19-33Q144.84-29.95 144.74-27.18 144.64-24.4 144.64-22.05L144.64-22.05 141.39-22.05 140.09-29.3Q139.24-29.4 138.19-29.43 137.14-29.45 136.09-29.45L136.09-29.45Q134.54-29.45 132.99-29.35 131.44-29.25 130.19-29L130.19-29Q128.89-29.25 127.24-29.33 125.59-29.4 123.94-29.4L123.94-29.4Q122.99-29.4 122.09-29.38 121.19-29.35 120.39-29.3L120.39-29.3 119.09-22.05 115.84-22.05Q115.79-24.4 115.64-27.1 115.49-29.8 115.19-33L115.19-33Q116.89-32.95 119.36-32.9 121.84-32.85 124.71-32.83 127.59-32.8 130.54-32.8L130.54-32.8Q133.54-32.8 136.34-32.83 139.14-32.85 141.44-32.9 143.74-32.95 145.19-33ZM158.44-21.75L158.44-21.75Q158.38-18.85 158.31-16.2 158.24-13.55 158.24-11.4L158.24-11.4Q158.24-9.55 158.31-7.15 158.38-4.75 158.44-2.9L158.44-2.9 162.44-1.85 161.59 0Q160.28-0.1 158.96-0.13 157.63-0.15 154.99-0.15L154.99-0.15Q152.53-0.15 151.16-0.1 149.78-0.05 148.24 0L148.24 0 147.44-1.85 151.69-2.9Q151.78-5.4 151.81-7.25 151.84-9.1 151.78-11.3L151.78-11.3Q151.78-12.45 151.76-13.35 151.74-14.25 151.69-15.38 151.63-16.5 151.49-18.25L151.49-18.25 147.94-18.9 147.19-20.8Q148.34-20.85 150.16-20.95 151.99-21.05 154.13-21.25 156.28-21.45 158.44-21.75ZM154.69-25.45L154.69-25.45Q153.09-25.45 151.94-26.65 150.78-27.85 150.78-29.6L150.78-29.6Q150.78-31.25 151.94-32.45 153.09-33.65 154.69-33.65L154.69-33.65Q156.28-33.65 157.44-32.45 158.59-31.25 158.59-29.6L158.59-29.6Q158.59-27.85 157.44-26.65 156.28-25.45 154.69-25.45ZM182.08-5.9L183.43-3.45Q181.73-1.9 179.41-0.8 177.08 0.3 174.08 0.3L174.08 0.3Q170.48 0.3 168.06-1.3 165.63-2.9 164.43-5.4 163.23-7.9 163.23-10.65L163.23-10.65Q163.23-13.45 164.48-16 165.73-18.55 168.26-20.18 170.78-21.8 174.68-21.8L174.68-21.8Q176.78-21.8 178.81-21.33 180.83-20.85 182.68-19.7L182.68-19.7Q181.98-17.1 181.68-15.43 181.38-13.75 181.08-12.25L181.08-12.25 178.58-12.25 177.83-16.8Q176.58-17.85 174.98-18.45 173.38-19.05 171.78-18.95L171.78-18.95Q170.73-17.7 170.16-16 169.58-14.3 169.58-12.5L169.58-12.5Q169.58-9.8 170.53-7.85 171.48-5.9 173.06-4.83 174.63-3.75 176.48-3.75L176.48-3.75Q177.73-3.75 179.16-4.28 180.58-4.8 182.08-5.9L182.08-5.9ZM195.43-37.25L195.43-37.25Q195.43-36 195.43-33.25 195.43-30.5 195.41-27 195.38-23.5 195.36-19.88 195.33-16.25 195.33-13.2L195.33-13.2 195.58-2.9 198.98-1.85 198.23 0Q196.38-0.1 194.91-0.13 193.43-0.15 191.68-0.15L191.68-0.15Q189.68-0.15 188.06-0.13 186.43-0.1 184.78 0L184.78 0 183.93-1.85 188.23-2.9Q188.53-8.55 188.53-14.65L188.53-14.65Q188.53-20.25 188.43-25.08 188.33-29.9 188.03-33.65L188.03-33.65 184.03-34.3 183.58-36.35Q184.43-36.4 185.93-36.5 187.43-36.6 189.18-36.73 190.93-36.85 192.58-36.98 194.23-37.1 195.43-37.25ZM195.83-10.95L195.83-10.95Q197.13-12.25 198.18-13.23 199.23-14.2 200.23-15.35 201.23-16.5 202.38-18.15L202.38-18.15 198.23-19.2 198.83-21.05Q200.38-21 201.86-20.95 203.33-20.9 205.13-20.9L205.13-20.9Q208.38-20.9 210.98-21.05L210.98-21.05 211.68-19.2 207.53-18.2Q205.63-16.55 204.41-15.45 203.18-14.35 202.16-13.33 201.13-12.3 199.73-10.95L199.73-10.95 201.48-13.6Q203.03-11.05 204.06-9.35 205.08-7.65 206.13-6.2 207.18-4.75 208.68-2.9L208.68-2.9 212.53-1.85 212.03 0Q210.63-0.1 209.41-0.1 208.18-0.1 206.73-0.1L206.73-0.1Q205.33-0.1 204.11-0.1 202.88-0.1 201.68 0L201.68 0Q200.23-2.6 198.91-5.25 197.58-7.9 195.83-10.95ZM225.43-21.85L225.43-21.85Q227.93-21.85 230.05-20.75 232.18-19.65 233.45-17.43 234.73-15.2 234.73-11.85L234.73-11.85Q233.63-11.65 231.83-11.5 230.03-11.35 227.88-11.28 225.73-11.2 223.58-11.2L223.58-11.2Q221.98-11.2 220.83-11.25 219.68-11.3 219.28-11.35L219.28-11.35 219.28-13.75Q219.83-13.75 220.95-13.75 222.08-13.75 223.48-13.8 224.88-13.85 226.2-13.95 227.53-14.05 228.43-14.2L228.43-14.2Q228.38-15.25 227.85-16.32 227.33-17.4 226.28-18.15 225.23-18.9 223.58-18.9L223.58-18.9Q222.58-17.95 221.98-16.28 221.38-14.6 221.38-12.4L221.38-12.4Q221.38-7.9 223.25-5.78 225.13-3.65 227.88-3.65L227.88-3.65Q230.68-3.65 233.78-5.65L233.78-5.65 234.88-3.35Q232.73-1.4 230.28-0.55 227.83 0.3 225.43 0.3L225.43 0.3Q222.63 0.3 220.2-0.93 217.78-2.15 216.3-4.6 214.83-7.05 214.83-10.7L214.83-10.7Q214.83-14.4 216.35-16.88 217.88-19.35 220.3-20.6 222.73-21.85 225.43-21.85ZM245.78-27.6L245.78-27.6Q245.68-25.85 245.63-23.53 245.58-21.2 245.55-18.73 245.53-16.25 245.55-14 245.58-11.75 245.6-10.1 245.63-8.45 245.68-7.8L245.68-7.8Q245.78-5.95 246.33-5.2 246.88-4.45 248.08-4.45L248.08-4.45Q248.93-4.45 249.88-4.75 250.83-5.05 252.38-6L252.38-6 253.38-4Q252.13-2.95 250.7-1.9 249.28-0.85 247.6-0.18 245.93 0.5 243.88 0.5L243.88 0.5Q242.73 0.5 241.63 0.03 240.53-0.45 239.85-1.63 239.18-2.8 239.18-4.8L239.18-4.8Q239.18-4.75 239.2-5.7 239.23-6.65 239.25-8.22 239.28-9.8 239.33-11.55 239.38-13.3 239.4-14.85 239.43-16.4 239.45-17.38 239.48-18.35 239.48-18.25L239.48-18.25Q239.43-18.8 238.85-19.2 238.28-19.6 237.53-19.9 236.78-20.2 236.18-20.45 235.58-20.7 235.53-21L235.53-21Q236.73-21.2 237.58-21.4 238.43-21.6 239.43-21.85L239.43-21.85Q240.53-23.3 241.4-24.58 242.28-25.85 243.43-27.6L243.43-27.6Q243.88-27.6 244.58-27.6 245.28-27.6 245.78-27.6ZM235.53-21L252.68-21.05 252.68-17.4 235.53-18.4 235.53-21Z" opacity="1" transform="matrix(1,0,0,1,0,0)" fill="#8789fe" class="wordmark-text-0" data-fill-palette-color="primary" id="text-0"></path></svg></g></svg></g></svg></g></svg></g><g><svg viewBox="0 0 226.31565582586595 108.82362979397782" height="108.82362979397782" width="226.31565582586595"><g><svg xmlns="http://www.w3.org/2000/svg" xmlns:xlink="http://www.w3.org/1999/xlink" version="1.1" x="8" y="0" viewBox="0 23.5 100 51.742999999999995" enable-background="new 0 0 100 100" xml:space="preserve" height="108.82362979397782" width="210.31565582586595" class="icon-icon-0" data-fill-palette-color="accent" id="icon-0"><path fill="#8789fe" d="M84.27 31.833H15.73C13.524 31.833 11.73 33.627 11.73 35.833V62.916C11.73 65.122 13.524 66.916 15.73 66.916H84.27C86.477 66.916 88.27 65.122 88.27 62.916V35.833C88.27 33.628 86.477 31.833 84.27 31.833" data-fill-palette-color="accent"></path><path fill="#8789fe" d="M100 32.639V30.645A11.83 11.83 0 0 1 92.882 23.5H7.16A11.83 11.83 0 0 1 0 30.66V32.639C1.155 32.997 2 34.061 2 35.333A2.82 2.82 0 0 1 0 38.027V39.638C1.155 39.996 2 41.06 2 42.332A2.82 2.82 0 0 1 0 45.026V46.637C1.155 46.995 2 48.059 2 49.331A2.82 2.82 0 0 1 0 52.025V53.635C1.155 53.992 2 55.058 2 56.329A2.82 2.82 0 0 1 0 59.022V60.633C1.155 60.99 2 62.055 2 63.327S1.155 65.664 0 66.021V68.125A11.83 11.83 0 0 1 7.145 75.243H92.896A11.83 11.83 0 0 1 100 68.139V66.02A2.82 2.82 0 0 1 98 63.327C98 62.056 98.846 60.99 100 60.633V59.023C98.846 58.666 98 57.601 98 56.329S98.846 53.992 100 53.635V52.024A2.82 2.82 0 0 1 98 49.331C98 48.059 98.846 46.994 100 46.637V45.026A2.82 2.82 0 0 1 98 42.332C98 41.06 98.846 39.995 100 39.638V38.027A2.83 2.83 0 0 1 98 35.332C98 34.061 98.846 32.996 100 32.639M90.27 62.916C90.27 66.225 87.58 68.916 84.27 68.916H15.73C12.421 68.916 9.73 66.225 9.73 62.916V35.833C9.73 32.524 12.421 29.833 15.73 29.833H84.27C87.58 29.833 90.27 32.524 90.27 35.833z" data-fill-palette-color="accent"></path></svg></g></svg></g></svg></g><defs></defs></svg><rect width="395.52" height="67.20835947187231" fill="none" stroke="none" visibility="hidden"></rect></g></svg></g></svg>